<?xml version="1.0" standalone="no"?>
<!DOCTYPE svg PUBLIC "-//W3C//DTD SVG 20010904//EN"
 "http://www.w3.org/TR/2001/REC-SVG-20010904/DTD/svg10.dtd">
<svg version="1.0" xmlns="http://www.w3.org/2000/svg"
 width="24.000000pt" height="24.000000pt" viewBox="0 0 24.000000 24.000000"
 preserveAspectRatio="xMidYMid meet">

<g transform="translate(0.000000,24.000000) scale(0.100000,-0.100000)"
fill="#000000" stroke="none">
<path d="M55 179 c-54 -54 -58 -61 -43 -73 10 -7 18 -30 20 -57 3 -42 5 -44
33 -44 26 0 30 4 31 28 1 25 1 25 -3 2 -3 -19 -11 -25 -29 -25 -22 0 -24 4
-24 50 0 38 -4 50 -15 50 -25 0 -17 13 40 70 l55 54 55 -54 c57 -57 65 -70 40
-70 -11 0 -15 -12 -15 -49 0 -45 -2 -50 -25 -54 -23 -4 -23 -4 2 -3 26 1 28 5
31 45 2 27 10 50 20 57 15 12 11 19 -43 73 -33 34 -62 61 -65 61 -3 0 -32 -27
-65 -61z"/>
<path d="M97 83 c-3 -5 8 -8 23 -8 15 0 26 3 23 8 -2 4 -13 7 -23 7 -10 0 -21
-3 -23 -7z"/>
</g>
</svg>
