<?xml version="1.0" standalone="no"?>
<!DOCTYPE svg PUBLIC "-//W3C//DTD SVG 20010904//EN"
 "http://www.w3.org/TR/2001/REC-SVG-20010904/DTD/svg10.dtd">
<svg version="1.0" xmlns="http://www.w3.org/2000/svg"
 width="24.000000pt" height="24.000000pt" viewBox="0 0 24.000000 24.000000"
 preserveAspectRatio="xMidYMid meet">

<g transform="translate(0.000000,24.000000) scale(0.100000,-0.100000)"
fill="#000000" stroke="none">
<path d="M16 185 c-15 -27 -17 -38 -8 -47 7 -7 12 -36 12 -65 l0 -53 100 0
100 0 0 53 c0 29 5 58 12 65 9 9 7 20 -8 47 l-19 35 -85 0 -85 0 -19 -35z
m194 6 c5 -11 10 -22 10 -25 0 -3 -45 -6 -100 -6 -55 0 -100 3 -100 6 0 3 5
14 10 25 9 16 22 19 90 19 68 0 81 -3 90 -19z m-168 -53 c-9 -9 -15 -9 -24 0
-9 9 -7 12 12 12 19 0 21 -3 12 -12z m63 1 c-4 -6 -14 -8 -23 -4 -9 3 -13 3
-9 -2 10 -10 87 -11 93 -1 3 4 -1 5 -9 2 -8 -3 -18 -1 -22 5 -11 18 28 12 53
-8 16 -14 22 -30 22 -60 l0 -41 -49 0 -50 0 -3 38 c-3 32 -6 37 -28 37 -22 0
-25 -5 -28 -37 -4 -51 -22 -48 -22 3 0 30 6 46 23 60 24 20 63 26 52 8z m117
-1 c-9 -9 -15 -9 -24 0 -9 9 -7 12 12 12 19 0 21 -3 12 -12z m-122 -73 c0 -28
-4 -35 -20 -35 -15 0 -20 7 -20 28 0 32 7 42 27 42 8 0 13 -12 13 -35z"/>
<path d="M124 96 c-11 -28 4 -48 33 -44 22 2 28 8 28 28 0 20 -6 26 -28 28
-18 2 -29 -2 -33 -12z m54 -13 c-2 -10 -12 -18 -23 -18 -11 0 -21 8 -23 18 -3
13 3 17 23 17 20 0 26 -4 23 -17z"/>
</g>
</svg>
